%TF.GenerationSoftware,KiCad,Pcbnew,8.0.8*%
%TF.CreationDate,2025-03-15T15:29:21+01:00*%
%TF.ProjectId,wergob,77657267-6f62-42e6-9b69-6361645f7063,rev?*%
%TF.SameCoordinates,Original*%
%TF.FileFunction,Paste,Bot*%
%TF.FilePolarity,Positive*%
%FSLAX46Y46*%
G04 Gerber Fmt 4.6, Leading zero omitted, Abs format (unit mm)*
G04 Created by KiCad (PCBNEW 8.0.8) date 2025-03-15 15:29:21*
%MOMM*%
%LPD*%
G01*
G04 APERTURE LIST*
G04 Aperture macros list*
%AMRoundRect*
0 Rectangle with rounded corners*
0 $1 Rounding radius*
0 $2 $3 $4 $5 $6 $7 $8 $9 X,Y pos of 4 corners*
0 Add a 4 corners polygon primitive as box body*
4,1,4,$2,$3,$4,$5,$6,$7,$8,$9,$2,$3,0*
0 Add four circle primitives for the rounded corners*
1,1,$1+$1,$2,$3*
1,1,$1+$1,$4,$5*
1,1,$1+$1,$6,$7*
1,1,$1+$1,$8,$9*
0 Add four rect primitives between the rounded corners*
20,1,$1+$1,$2,$3,$4,$5,0*
20,1,$1+$1,$4,$5,$6,$7,0*
20,1,$1+$1,$6,$7,$8,$9,0*
20,1,$1+$1,$8,$9,$2,$3,0*%
G04 Aperture macros list end*
%ADD10RoundRect,0.150000X0.587500X0.150000X-0.587500X0.150000X-0.587500X-0.150000X0.587500X-0.150000X0*%
%ADD11RoundRect,0.250000X0.300000X-0.300000X0.300000X0.300000X-0.300000X0.300000X-0.300000X-0.300000X0*%
%ADD12RoundRect,0.140000X0.140000X0.170000X-0.140000X0.170000X-0.140000X-0.170000X0.140000X-0.170000X0*%
%ADD13RoundRect,0.250000X0.212132X-0.367423X0.367423X0.212132X-0.212132X0.367423X-0.367423X-0.212132X0*%
%ADD14RoundRect,0.075000X-0.521491X0.415425X0.415425X-0.521491X0.521491X-0.415425X-0.415425X0.521491X0*%
%ADD15RoundRect,0.075000X-0.521491X-0.415425X-0.415425X-0.521491X0.521491X0.415425X0.415425X0.521491X0*%
%ADD16RoundRect,0.150000X0.625000X-0.150000X0.625000X0.150000X-0.625000X0.150000X-0.625000X-0.150000X0*%
%ADD17RoundRect,0.250000X0.650000X-0.350000X0.650000X0.350000X-0.650000X0.350000X-0.650000X-0.350000X0*%
%ADD18RoundRect,0.135000X0.135000X0.185000X-0.135000X0.185000X-0.135000X-0.185000X0.135000X-0.185000X0*%
%ADD19RoundRect,0.140000X0.170000X-0.140000X0.170000X0.140000X-0.170000X0.140000X-0.170000X-0.140000X0*%
%ADD20RoundRect,0.140000X-0.140000X-0.170000X0.140000X-0.170000X0.140000X0.170000X-0.140000X0.170000X0*%
%ADD21RoundRect,0.140000X-0.170000X0.140000X-0.170000X-0.140000X0.170000X-0.140000X0.170000X0.140000X0*%
%ADD22RoundRect,0.150000X0.275000X-0.150000X0.275000X0.150000X-0.275000X0.150000X-0.275000X-0.150000X0*%
%ADD23RoundRect,0.175000X0.225000X-0.175000X0.225000X0.175000X-0.225000X0.175000X-0.225000X-0.175000X0*%
%ADD24RoundRect,0.250000X0.367423X-0.212132X0.212132X0.367423X-0.367423X0.212132X-0.212132X-0.367423X0*%
%ADD25RoundRect,0.200000X0.800000X-0.200000X0.800000X0.200000X-0.800000X0.200000X-0.800000X-0.200000X0*%
G04 APERTURE END LIST*
D10*
%TO.C,U2*%
X243825000Y-53818750D03*
X243825000Y-55718750D03*
X241950000Y-54768750D03*
%TD*%
D11*
%TO.C,D24*%
X236537500Y-53787500D03*
X236537500Y-50987500D03*
%TD*%
%TO.C,D22*%
X198437500Y-49025000D03*
X198437500Y-46225000D03*
%TD*%
%TO.C,D35*%
X227012500Y-72837500D03*
X227012500Y-70037500D03*
%TD*%
D12*
%TO.C,C6*%
X244955000Y-51793750D03*
X243995000Y-51793750D03*
%TD*%
D11*
%TO.C,D39*%
X60325000Y-91887500D03*
X60325000Y-89087500D03*
%TD*%
%TO.C,D38*%
X41275000Y-91887500D03*
X41275000Y-89087500D03*
%TD*%
%TO.C,D25*%
X262731250Y-53787500D03*
X262731250Y-50987500D03*
%TD*%
%TO.C,D17*%
X103187500Y-49025000D03*
X103187500Y-46225000D03*
%TD*%
%TO.C,D19*%
X141287500Y-58550000D03*
X141287500Y-55750000D03*
%TD*%
%TO.C,D21*%
X179387500Y-53787500D03*
X179387500Y-50987500D03*
%TD*%
D13*
%TO.C,D42*%
X121280132Y-101121923D03*
X122004826Y-98417331D03*
%TD*%
D11*
%TO.C,D47*%
X231775000Y-91887500D03*
X231775000Y-89087500D03*
%TD*%
%TO.C,D48*%
X250554536Y-91887500D03*
X250554536Y-89087500D03*
%TD*%
D14*
%TO.C,U1*%
X239587124Y-43451212D03*
X239940678Y-43097658D03*
X240294231Y-42744105D03*
X240647785Y-42390551D03*
X241001338Y-42036998D03*
X241354891Y-41683445D03*
X241708445Y-41329891D03*
X242061998Y-40976338D03*
X242415551Y-40622785D03*
X242769105Y-40269231D03*
X243122658Y-39915678D03*
X243476212Y-39562124D03*
D15*
X245473788Y-39562124D03*
X245827342Y-39915678D03*
X246180895Y-40269231D03*
X246534449Y-40622785D03*
X246888002Y-40976338D03*
X247241555Y-41329891D03*
X247595109Y-41683445D03*
X247948662Y-42036998D03*
X248302215Y-42390551D03*
X248655769Y-42744105D03*
X249009322Y-43097658D03*
X249362876Y-43451212D03*
D14*
X249362876Y-45448788D03*
X249009322Y-45802342D03*
X248655769Y-46155895D03*
X248302215Y-46509449D03*
X247948662Y-46863002D03*
X247595109Y-47216555D03*
X247241555Y-47570109D03*
X246888002Y-47923662D03*
X246534449Y-48277215D03*
X246180895Y-48630769D03*
X245827342Y-48984322D03*
X245473788Y-49337876D03*
D15*
X243476212Y-49337876D03*
X243122658Y-48984322D03*
X242769105Y-48630769D03*
X242415551Y-48277215D03*
X242061998Y-47923662D03*
X241708445Y-47570109D03*
X241354891Y-47216555D03*
X241001338Y-46863002D03*
X240647785Y-46509449D03*
X240294231Y-46155895D03*
X239940678Y-45802342D03*
X239587124Y-45448788D03*
%TD*%
D11*
%TO.C,D31*%
X150812500Y-77600000D03*
X150812500Y-74800000D03*
%TD*%
D16*
%TO.C,J1*%
X169987500Y-65987500D03*
X169987500Y-64987500D03*
X169987500Y-63987500D03*
X169987500Y-62987500D03*
D17*
X166112500Y-67287500D03*
X166112500Y-61687500D03*
%TD*%
D12*
%TO.C,C2*%
X238385574Y-44921988D03*
X237425574Y-44921988D03*
%TD*%
D11*
%TO.C,D7*%
X155575000Y-39500000D03*
X155575000Y-36700000D03*
%TD*%
%TO.C,D28*%
X93662500Y-68075000D03*
X93662500Y-65275000D03*
%TD*%
D18*
%TO.C,R1*%
X251335000Y-57150000D03*
X250315000Y-57150000D03*
%TD*%
D11*
%TO.C,D34*%
X207962500Y-68075000D03*
X207962500Y-65275000D03*
%TD*%
%TO.C,D8*%
X174625000Y-34737500D03*
X174625000Y-31937500D03*
%TD*%
%TO.C,D29*%
X112712500Y-72837500D03*
X112712500Y-70037500D03*
%TD*%
%TO.C,D23*%
X217487500Y-49025000D03*
X217487500Y-46225000D03*
%TD*%
%TO.C,D5*%
X117475000Y-29975000D03*
X117475000Y-27175000D03*
%TD*%
%TO.C,D6*%
X136525000Y-34737500D03*
X136525000Y-31937500D03*
%TD*%
%TO.C,D27*%
X74612500Y-72837500D03*
X74612500Y-70037500D03*
%TD*%
%TO.C,D3*%
X79375000Y-29975000D03*
X79375000Y-27175000D03*
%TD*%
%TO.C,D26*%
X57150000Y-72837500D03*
X57150000Y-70037500D03*
%TD*%
D12*
%TO.C,C5*%
X238385574Y-43890548D03*
X237425574Y-43890548D03*
%TD*%
D11*
%TO.C,D43*%
X130175000Y-101412500D03*
X130175000Y-98612500D03*
%TD*%
D12*
%TO.C,C1*%
X244955000Y-50800000D03*
X243995000Y-50800000D03*
%TD*%
D11*
%TO.C,D36*%
X230187500Y-72837500D03*
X230187500Y-70037500D03*
%TD*%
%TO.C,D49*%
X269875000Y-91887500D03*
X269875000Y-89087500D03*
%TD*%
%TO.C,D13*%
X269081250Y-34737500D03*
X269081250Y-31937500D03*
%TD*%
D19*
%TO.C,C7*%
X243946951Y-38414298D03*
X243946951Y-37454298D03*
%TD*%
D11*
%TO.C,D44*%
X165100000Y-101412500D03*
X165100000Y-98612500D03*
%TD*%
D20*
%TO.C,C3*%
X250477005Y-44517720D03*
X251437005Y-44517720D03*
%TD*%
D11*
%TO.C,D40*%
X79375000Y-91887500D03*
X79375000Y-89087500D03*
%TD*%
D21*
%TO.C,C9*%
X245368750Y-54288750D03*
X245368750Y-55248750D03*
%TD*%
D22*
%TO.C,J2*%
X168275000Y-66287500D03*
X168275000Y-65087500D03*
X168275000Y-63887500D03*
X168275000Y-62687500D03*
D23*
X164500000Y-67437500D03*
X164500000Y-61537500D03*
%TD*%
D24*
%TO.C,D45*%
X174193597Y-101364796D03*
X173468903Y-98660204D03*
%TD*%
D19*
%TO.C,C4*%
X245034451Y-38414298D03*
X245034451Y-37454298D03*
%TD*%
D11*
%TO.C,D16*%
X84137500Y-49025000D03*
X84137500Y-46225000D03*
%TD*%
%TO.C,D11*%
X231775000Y-29975000D03*
X231775000Y-27175000D03*
%TD*%
%TO.C,D4*%
X98425000Y-29975000D03*
X98425000Y-27175000D03*
%TD*%
%TO.C,D12*%
X250825000Y-34737500D03*
X250825000Y-31937500D03*
%TD*%
%TO.C,D20*%
X160337500Y-58550000D03*
X160337500Y-55750000D03*
%TD*%
%TO.C,D10*%
X212725000Y-29975000D03*
X212725000Y-27175000D03*
%TD*%
D25*
%TO.C,SW1*%
X250825000Y-63218750D03*
X250825000Y-59018750D03*
%TD*%
D11*
%TO.C,D15*%
X65087500Y-53787500D03*
X65087500Y-50987500D03*
%TD*%
%TO.C,D30*%
X131762500Y-77600000D03*
X131762500Y-74800000D03*
%TD*%
D24*
%TO.C,D46*%
X207729825Y-92082669D03*
X207005133Y-89378077D03*
%TD*%
D11*
%TO.C,D37*%
X267493750Y-72837500D03*
X267493750Y-70037500D03*
%TD*%
D21*
%TO.C,C8*%
X240406250Y-54288750D03*
X240406250Y-55248750D03*
%TD*%
D13*
%TO.C,D41*%
X87743903Y-91839796D03*
X88468597Y-89135204D03*
%TD*%
D11*
%TO.C,D18*%
X122237500Y-53787500D03*
X122237500Y-50987500D03*
%TD*%
%TO.C,D32*%
X169862500Y-77600000D03*
X169862500Y-74800000D03*
%TD*%
%TO.C,D33*%
X189230000Y-72837500D03*
X189230000Y-70037500D03*
%TD*%
%TO.C,D2*%
X60325000Y-34737500D03*
X60325000Y-31937500D03*
%TD*%
%TO.C,D1*%
X41275000Y-34737500D03*
X41275000Y-31937500D03*
%TD*%
%TO.C,D9*%
X193675000Y-29975000D03*
X193675000Y-27175000D03*
%TD*%
%TO.C,D14*%
X43656250Y-53787500D03*
X43656250Y-50987500D03*
%TD*%
M02*
