%TF.GenerationSoftware,KiCad,Pcbnew,8.0.8*%
%TF.CreationDate,2025-03-15T15:28:53+01:00*%
%TF.ProjectId,wergob,77657267-6f62-42e6-9b69-6361645f7063,rev?*%
%TF.SameCoordinates,Original*%
%TF.FileFunction,Profile,NP*%
%FSLAX46Y46*%
G04 Gerber Fmt 4.6, Leading zero omitted, Abs format (unit mm)*
G04 Created by KiCad (PCBNEW 8.0.8) date 2025-03-15 15:28:53*
%MOMM*%
%LPD*%
G01*
G04 APERTURE LIST*
%TA.AperFunction,Profile*%
%ADD10C,0.200000*%
%TD*%
G04 APERTURE END LIST*
D10*
X166687500Y-110331250D02*
X128587500Y-110331250D01*
X157162500Y-26987500D02*
G75*
G02*
X155575000Y-28575000I-1587500J0D01*
G01*
X120650000Y-23812500D02*
G75*
G02*
X119062500Y-22225000I0J1587500D01*
G01*
X176212500Y-22225000D02*
G75*
G02*
X174625000Y-23812500I-1587500J0D01*
G01*
X119062500Y-22225000D02*
X119062500Y-20637500D01*
X117475000Y-19050000D02*
G75*
G02*
X119062500Y-20637500I0J-1587500D01*
G01*
X157162500Y-25400000D02*
X157162500Y-26987500D01*
X176212500Y-20637500D02*
G75*
G02*
X177800000Y-19050000I1587500J0D01*
G01*
X231775000Y-19050000D02*
G75*
G02*
X233362500Y-20637500I0J-1587500D01*
G01*
X269875000Y-23812500D02*
X234950000Y-23812500D01*
X176212500Y-20637500D02*
X176212500Y-22225000D01*
X269875000Y-23812500D02*
G75*
G02*
X271462500Y-25400000I0J-1587500D01*
G01*
X23812500Y-98425000D02*
X23812500Y-25400000D01*
X138112500Y-26987500D02*
X138112500Y-25400000D01*
X269875000Y-100012500D02*
X166687500Y-110331250D01*
X61912500Y-20637500D02*
X61912500Y-22225000D01*
X139700000Y-28575000D02*
G75*
G02*
X138112500Y-26987500I0J1587500D01*
G01*
X234950000Y-23812500D02*
G75*
G02*
X233362500Y-22225000I0J1587500D01*
G01*
X177800000Y-19050000D02*
X231775000Y-19050000D01*
X60325000Y-23812500D02*
X25400000Y-23812500D01*
X61912500Y-22225000D02*
G75*
G02*
X60325000Y-23812500I-1587500J0D01*
G01*
X128587500Y-110331250D02*
X25400000Y-100012500D01*
X233362500Y-22225000D02*
X233362500Y-20637500D01*
X174625000Y-23812500D02*
X158750000Y-23812500D01*
X136525000Y-23812500D02*
X120650000Y-23812500D01*
X155575000Y-28575000D02*
X139700000Y-28575000D01*
X23812500Y-25400000D02*
G75*
G02*
X25400000Y-23812500I1587500J0D01*
G01*
X157162500Y-25400000D02*
G75*
G02*
X158750000Y-23812500I1587500J0D01*
G01*
X271462500Y-25400000D02*
X271462500Y-98425000D01*
X25400000Y-100012500D02*
G75*
G02*
X23812500Y-98425000I0J1587500D01*
G01*
X136525000Y-23812500D02*
G75*
G02*
X138112500Y-25400000I0J-1587500D01*
G01*
X271462500Y-98425000D02*
G75*
G02*
X269875000Y-100012500I-1587500J0D01*
G01*
X117475000Y-19050000D02*
X63500000Y-19050000D01*
X61912500Y-20637500D02*
G75*
G02*
X63500000Y-19050000I1587500J0D01*
G01*
M02*
