M48
; DRILL file {KiCad 8.0.8} date 2025-03-15T15:28:53+0100
; FORMAT={-:-/ absolute / inch / decimal}
; #@! TF.CreationDate,2025-03-15T15:28:53+01:00
; #@! TF.GenerationSoftware,Kicad,Pcbnew,8.0.8
; #@! TF.FileFunction,Plated,1,2,PTH
FMAT,2
INCH
; #@! TA.AperFunction,Plated,PTH,ViaDrill
T1C0.0118
; #@! TA.AperFunction,Plated,PTH,ComponentDrill
T2C0.0600
; #@! TA.AperFunction,Plated,PTH,ComponentDrill
T3C0.1200
%
G90
G05
T1
X6.5399Y-2.5312
X6.7842Y-2.4799
X9.321Y-1.7282
X9.321Y-1.7686
X9.4062Y-1.8438
X9.4062Y-2.1608
X9.4177Y-1.7504
X9.4648Y-2.1074
X9.4902Y-1.5736
X9.5771Y-2.0393
X9.5778Y-2.0002
X9.5917Y-1.6547
X9.592Y-1.6232
X9.5938Y-1.8438
X9.5938Y-2.2216
X9.6041Y-1.4477
X9.625Y-1.75
X9.625Y-1.9688
X9.6466Y-1.5391
X9.647Y-1.4448
X9.6604Y-2.1083
X9.7835Y-2.1608
X9.8125Y-2.25
X9.8293Y-1.753
X9.875Y-2.2188
X9.875Y-2.4062
X9.9256Y-1.7525
T2
X1.1625Y-1.2125
X1.1625Y-3.4625
X1.2562Y-1.9625
X1.4125Y-1.1125
X1.4125Y-3.3625
X1.4437Y-2.7125
X1.5062Y-1.8625
X1.6937Y-2.6125
X1.8187Y-2.7125
X1.9125Y-1.2125
X1.9125Y-3.4625
X2.0688Y-2.6125
X2.1Y-1.9625
X2.1625Y-1.1125
X2.1625Y-3.3625
X2.35Y-1.8625
X2.475Y-2.7125
X2.6625Y-1.025
X2.6625Y-3.4625
X2.725Y-2.6125
X2.85Y-1.775
X2.9125Y-0.925
X2.9125Y-3.3625
X3.1Y-1.675
X3.225Y-2.525
X3.4125Y-1.025
X3.475Y-2.425
X3.6Y-1.775
X3.6438Y-3.5175
X3.6625Y-0.925
X3.85Y-1.675
X3.9111Y-3.4856
X3.975Y-2.7125
X4.006Y-3.6146
X4.1625Y-1.025
X4.225Y-2.6125
X4.2734Y-3.5827
X4.35Y-1.9625
X4.3682Y-3.7116
X4.4125Y-0.925
X4.6Y-1.8625
X4.6356Y-3.6798
X4.725Y-2.9
X4.9125Y-1.2125
X4.975Y-2.8
X5.1Y-2.15
X5.1625Y-1.1125
X5.2875Y-3.8375
X5.35Y-2.05
X5.475Y-2.9
X5.5375Y-3.7375
X5.6625Y-1.4
X5.6625Y-3.8375
X5.725Y-2.8
X5.85Y-2.15
X5.9125Y-1.3
X5.9125Y-3.7375
X6.0375Y-3.8375
X6.1Y-2.05
X6.225Y-2.9
X6.2875Y-3.7375
X6.4125Y-1.2125
X6.475Y-2.8
X6.6Y-1.9625
X6.6625Y-1.1125
X6.85Y-1.8625
X6.967Y-3.7893
X6.975Y-2.7125
X7.1625Y-1.025
X7.1826Y-3.628
X7.225Y-2.6125
X7.3292Y-3.6922
X7.35Y-1.775
X7.4125Y-0.925
X7.5448Y-3.5309
X7.6Y-1.675
X7.6915Y-3.5952
X7.725Y-2.525
X7.9071Y-3.4339
X7.9125Y-1.025
X7.975Y-2.425
X8.1Y-1.775
X8.1625Y-0.925
X8.35Y-1.675
X8.475Y-2.7125
X8.6625Y-1.025
X8.6625Y-3.4625
X8.725Y-2.6125
X8.85Y-1.9625
X8.9125Y-0.925
X8.9125Y-3.3625
X9.1Y-1.8625
X9.225Y-2.7125
X9.4125Y-1.2125
X9.4125Y-3.4625
X9.475Y-2.6125
X9.6625Y-1.1125
X9.6625Y-3.3625
X9.6937Y-2.7125
X9.8812Y-1.9625
X9.9437Y-2.6125
X10.0687Y-2.7125
X10.1312Y-1.8625
X10.1625Y-1.2125
X10.1625Y-3.4625
X10.3187Y-2.6125
X10.4125Y-1.1125
X10.4125Y-3.3625
T3
X1.5Y-2.5375
X2.4375Y-2.5375
X3.601Y-3.8943
X4.5066Y-4.137
X5.3438Y-4.2125
X6.2812Y-4.2125
X7.1184Y-4.137
X8.024Y-3.8943
X9.375Y-2.5375
X10.3125Y-2.5375
M30
