M48
; DRILL file {KiCad 8.0.8} date 2025-03-15T15:28:53+0100
; FORMAT={-:-/ absolute / inch / decimal}
; #@! TF.CreationDate,2025-03-15T15:28:53+01:00
; #@! TF.GenerationSoftware,Kicad,Pcbnew,8.0.8
; #@! TF.FileFunction,NonPlated,1,2,NPTH
FMAT,2
INCH
; #@! TA.AperFunction,NonPlated,NPTH,ComponentDrill
T1C0.0689
; #@! TA.AperFunction,NonPlated,NPTH,ComponentDrill
T2C0.1570
%
G90
G05
T1
X1.1125Y-1.3125
X1.1125Y-3.5625
X1.2063Y-2.0625
X1.3938Y-2.8125
X1.5125Y-1.3125
X1.5125Y-3.5625
X1.6062Y-2.0625
X1.7688Y-2.8125
X1.7937Y-2.8125
X1.8625Y-1.3125
X1.8625Y-3.5625
X2.05Y-2.0625
X2.1687Y-2.8125
X2.2625Y-1.3125
X2.2625Y-3.5625
X2.425Y-2.8125
X2.45Y-2.0625
X2.6125Y-1.125
X2.6125Y-3.5625
X2.8Y-1.875
X2.825Y-2.8125
X3.0125Y-1.125
X3.0125Y-3.5625
X3.175Y-2.625
X3.2Y-1.875
X3.3625Y-1.125
X3.55Y-1.875
X3.5696Y-3.6012
X3.575Y-2.625
X3.7625Y-1.125
X3.925Y-2.8125
X3.9318Y-3.6982
X3.95Y-1.875
X3.956Y-3.7047
X4.1125Y-1.125
X4.294Y-3.7953
X4.3Y-2.0625
X4.3182Y-3.8018
X4.325Y-2.8125
X4.5125Y-1.125
X4.675Y-3.0
X4.6804Y-3.8988
X4.7Y-2.0625
X4.8625Y-1.3125
X5.05Y-2.25
X5.075Y-3.0
X5.2375Y-3.9375
X5.2625Y-1.3125
X5.425Y-3.0
X5.45Y-2.25
X5.6125Y-1.5
X5.6125Y-3.9375
X5.6375Y-3.9375
X5.8Y-2.25
X5.825Y-3.0
X5.9875Y-3.9375
X6.0125Y-1.5
X6.0125Y-3.9375
X6.175Y-3.0
X6.2Y-2.25
X6.3625Y-1.3125
X6.3875Y-3.9375
X6.55Y-2.0625
X6.575Y-3.0
X6.7625Y-1.3125
X6.925Y-2.8125
X6.9446Y-3.8988
X6.95Y-2.0625
X7.1125Y-1.125
X7.3Y-1.875
X7.3068Y-3.8018
X7.325Y-2.8125
X7.331Y-3.7953
X7.5125Y-1.125
X7.669Y-3.7047
X7.675Y-2.625
X7.6932Y-3.6982
X7.7Y-1.875
X7.8625Y-1.125
X8.05Y-1.875
X8.0554Y-3.6012
X8.075Y-2.625
X8.2625Y-1.125
X8.425Y-2.8125
X8.45Y-1.875
X8.6125Y-1.125
X8.6125Y-3.5625
X8.8Y-2.0625
X8.825Y-2.8125
X9.0125Y-1.125
X9.0125Y-3.5625
X9.175Y-2.8125
X9.2Y-2.0625
X9.3625Y-1.3125
X9.3625Y-3.5625
X9.575Y-2.8125
X9.6437Y-2.8125
X9.7625Y-1.3125
X9.7625Y-3.5625
X9.8312Y-2.0625
X10.0187Y-2.8125
X10.0437Y-2.8125
X10.1125Y-1.3125
X10.1125Y-3.5625
X10.2312Y-2.0625
X10.4187Y-2.8125
X10.5125Y-1.3125
X10.5125Y-3.5625
T2
X1.3125Y-1.3125
X1.3125Y-3.5625
X1.4062Y-2.0625
X1.5Y-3.1375
X1.5938Y-2.8125
X1.9688Y-2.8125
X2.0625Y-1.3125
X2.0625Y-3.5625
X2.25Y-2.0625
X2.4375Y-3.1375
X2.625Y-2.8125
X2.8125Y-1.125
X2.8125Y-3.5625
X3.0Y-1.875
X3.375Y-2.625
X3.5625Y-1.125
X3.75Y-1.875
X3.7563Y-3.3148
X3.7628Y-3.6529
X4.125Y-2.8125
X4.125Y-3.75
X4.3125Y-1.125
X4.4872Y-3.8471
X4.5Y-2.0625
X4.6619Y-3.5574
X4.875Y-3.0
X5.0625Y-1.3125
X5.25Y-2.25
X5.3438Y-3.6125
X5.4375Y-3.9375
X5.625Y-3.0
X5.8125Y-1.5
X5.8125Y-3.9375
X6.0Y-2.25
X6.1875Y-3.9375
X6.2812Y-3.6125
X6.375Y-3.0
X6.5625Y-1.3125
X6.75Y-2.0625
X6.9631Y-3.5574
X7.125Y-2.8125
X7.1378Y-3.8471
X7.3125Y-1.125
X7.5Y-1.875
X7.5Y-3.75
X7.8622Y-3.6529
X7.8687Y-3.3148
X7.875Y-2.625
X8.0625Y-1.125
X8.25Y-1.875
X8.625Y-2.8125
X8.8125Y-1.125
X8.8125Y-3.5625
X9.0Y-2.0625
X9.375Y-2.8125
X9.375Y-3.1375
X9.5625Y-1.3125
X9.5625Y-3.5625
X9.8438Y-2.8125
X10.0312Y-2.0625
X10.2188Y-2.8125
X10.3125Y-1.3125
X10.3125Y-3.1375
X10.3125Y-3.5625
M30
